<?xml version="1.0" standalone="no"?>
<!DOCTYPE svg PUBLIC "-//W3C//DTD SVG 20010904//EN"
 "http://www.w3.org/TR/2001/REC-SVG-20010904/DTD/svg10.dtd">
<svg version="1.0" xmlns="http://www.w3.org/2000/svg"
 width="1120.000000pt" height="1120.000000pt" viewBox="0 0 1120.000000 1120.000000"
 preserveAspectRatio="xMidYMid meet">

<g transform="translate(0.000000,1120.000000) scale(0.100000,-0.100000)"
fill="#000000" stroke="none">
<path d="M0 7321 l0 -3878 368 -7 c202 -4 489 -11 637 -16 149 -5 344 -12 435
-15 91 -3 226 -10 300 -15 74 -6 160 -12 190 -14 96 -7 -349 4 -815 19 -247 8
-600 18 -782 21 l-333 7 0 -1711 0 -1712 5600 0 5600 0 0 5600 0 5600 -5600 0
-5600 0 0 -3879z m4110 2562 c-60 -38 -124 -90 -183 -148 -92 -93 -103 -82
-13 13 52 56 132 115 221 164 87 48 72 30 -25 -29z m-3406 -39 c8 -21 -1 -34
-24 -34 -22 0 -34 15 -26 35 7 20 42 19 50 -1z m164 -10 c2 -15 -3 -23 -17
-27 -27 -7 -56 15 -48 37 10 26 61 17 65 -10z m3002 -307 c0 -2 -10 -12 -22
-23 l-23 -19 19 23 c18 21 26 27 26 19z m-2618 -19 c10 0 21 -4 24 -10 4 -7 2
-8 -4 -4 -7 4 -12 3 -12 -1 0 -10 8 -9 -174 -13 -109 -2 -140 0 -147 11 -11
19 71 27 201 21 52 -3 103 -4 112 -4z m261 -7 c7 -7 6 -16 -3 -26 -13 -16 -55
-15 -112 1 -21 6 -24 30 -5 38 18 8 109 -2 120 -13z m16 -76 c14 -4 21 -15 21
-31 0 -22 -4 -24 -44 -24 -53 0 -76 8 -76 25 0 36 42 48 99 30z m-511 -1 c12
-4 22 -12 22 -19 0 -20 -111 -26 -127 -7 -7 8 -10 19 -7 23 6 10 78 12 112 3z
m243 -7 c70 6 91 -4 64 -31 -15 -15 -86 -12 -93 5 -2 4 -23 5 -47 2 -45 -4
-55 3 -33 25 7 7 17 8 27 2 9 -4 46 -6 82 -3z m2609 9 c0 -2 -18 -15 -40 -30
-22 -14 -40 -24 -40 -22 0 5 71 56 77 56 2 0 3 -2 3 -4z m-2075 -16 c3 -5 2
-15 -1 -24 -9 -24 -169 -23 -178 1 -4 9 -1 20 6 24 16 10 167 9 173 -1z m1978
-43 c7 3 8 2 4 -3 -5 -5 -14 -9 -20 -9 -7 -1 -11 -6 -10 -12 1 -6 -7 -19 -17
-28 -11 -10 -20 -15 -20 -11 0 13 45 75 48 66 2 -6 9 -7 15 -3z m-2378 -43
c15 -15 15 -19 1 -32 -12 -12 -43 -15 -162 -14 -148 1 -204 11 -204 38 0 15
42 20 222 22 106 2 129 -1 143 -14z m522 7 c48 -1 61 -4 59 -16 -1 -8 -4 -17
-7 -19 -2 -3 -61 -7 -129 -10 -121 -6 -151 -7 -235 -6 -22 0 -61 -3 -86 -6
-50 -6 -66 8 -54 47 6 18 61 19 452 10z m-219 -96 c11 -4 11 -7 -1 -19 -10
-10 -54 -18 -138 -24 -168 -13 -168 -13 -179 8 -12 23 0 32 55 40 48 6 243 3
263 -5z m-457 -16 c5 -8 9 -17 9 -20 0 -20 -138 -26 -189 -8 -70 24 -18 50 92
46 54 -3 82 -8 88 -18z m84 -74 c144 -1 160 -3 163 -19 2 -10 0 -22 -6 -28
-11 -11 -352 -15 -370 -4 -31 19 -2 71 33 59 11 -3 92 -7 180 -8z m-98 -110
c19 -6 4 -35 -23 -46 -14 -5 -44 -6 -69 -2 -38 5 -45 9 -45 29 0 13 7 24 18
27 18 4 99 -1 119 -8z m162 1 c18 -21 2 -46 -28 -46 -36 0 -66 23 -58 44 8 20
70 22 86 2z m419 -10 c2 -3 2 -12 -2 -21 -4 -12 -19 -15 -69 -13 -34 1 -68 -1
-74 -5 -6 -4 -46 -2 -88 4 -82 13 -96 30 -29 39 46 6 255 3 262 -4z m486 3
c70 -1 129 -5 131 -9 13 -21 -32 -27 -170 -26 -132 1 -150 3 -153 18 -2 12 5
18 25 20 15 2 31 3 34 1 3 -1 63 -3 133 -4z m-344 -7 c0 -17 -25 -32 -52 -32
-21 0 -28 5 -28 20 0 17 7 20 40 20 22 0 40 -4 40 -8z m64 0 c8 -13 -11 -35
-23 -28 -16 10 -14 36 3 36 8 0 17 -4 20 -8z m506 -22 c0 -12 -5 -17 -13 -14
-8 3 -14 11 -14 19 0 8 6 15 14 15 7 0 13 -9 13 -20z m-1122 -55 c19 -7 15
-45 -5 -46 -132 -8 -278 -5 -290 6 -20 21 -16 43 10 47 28 4 268 -2 285 -7z
m259 -12 c5 -14 -32 -27 -72 -25 -16 1 -46 3 -65 3 -35 2 -63 16 -56 28 8 12
189 7 193 -6z m128 3 c18 -13 18 -14 -1 -19 -36 -12 -72 2 -59 22 9 15 38 14
60 -3z m110 -6 c-3 -5 -10 -10 -16 -10 -5 0 -9 5 -9 10 0 6 7 10 16 10 8 0 12
-4 9 -10z m225 -4 c-16 -20 -86 -21 -93 -3 -4 10 9 14 51 16 49 2 54 0 42 -13z
m254 6 c3 -5 -1 -9 -9 -9 -8 0 -15 4 -15 9 0 4 4 8 9 8 6 0 12 -4 15 -8z m316
-4 c0 -5 -6 -8 -12 -9 -7 0 -22 -2 -33 -5 -25 -5 -67 4 -61 14 6 9 106 9 106
0z m100 3 c11 0 20 -6 20 -12 0 -7 -16 -9 -47 -6 -58 7 -53 5 -53 15 0 6 18 7
80 3z m-1455 -92 c6 -6 3 -15 -6 -24 -12 -12 -41 -16 -125 -16 -146 -2 -211
25 -121 49 39 11 238 3 252 -9z m172 -5 c7 -20 -20 -44 -45 -39 -9 2 -20 4
-24 4 -10 1 -10 35 -1 44 13 14 64 7 70 -9z m2486 -37 c3 -22 2 -35 -4 -32 -5
4 -9 22 -9 42 0 45 5 40 13 -10z m242 -196 l-7 -229 23 -16 c13 -8 21 -17 18
-18 -2 -2 -17 -10 -34 -18 -28 -15 -45 -39 -61 -85 -15 -45 -15 11 0 127 8 68
18 168 21 223 6 102 22 222 31 237 15 23 16 -11 9 -221z m-2886 140 c19 -31 1
-44 -53 -37 -28 3 -76 6 -106 6 -66 0 -94 14 -69 33 24 18 217 17 228 -2z
m108 3 c1 -5 -2 -16 -7 -24 -12 -20 -35 2 -26 25 6 17 27 16 33 -1z m252 -9
c20 -19 -11 -32 -79 -35 -83 -4 -104 -1 -125 14 -16 11 -17 17 -7 29 10 11 31
13 105 10 55 -3 97 -10 106 -18z m381 -3 c0 -16 -14 -18 -159 -21 -155 -2
-182 3 -166 29 4 6 70 10 166 10 146 0 159 -1 159 -18z m-402 -71 c6 -1 12
-10 12 -21 0 -19 -7 -20 -184 -20 -193 0 -249 5 -243 24 5 14 294 34 357 24
25 -4 51 -7 58 -7z m-292 -233 c15 -16 -12 -28 -64 -28 -62 0 -89 11 -77 30 8
13 128 11 141 -2z m362 0 c23 -23 11 -29 -60 -27 -83 2 -94 5 -77 25 14 18
120 19 137 2z m122 -8 c0 -11 -7 -20 -15 -20 -13 0 -13 3 -3 20 7 11 14 20 15
20 2 0 3 -9 3 -20z m-267 -82 c18 -9 18 -11 1 -29 -9 -10 -23 -19 -31 -19 -10
0 -12 -10 -7 -39 5 -34 3 -41 -17 -52 -23 -13 -23 -14 16 -19 46 -6 57 -30 29
-61 -13 -15 -30 -20 -68 -19 -28 0 -82 0 -121 0 -105 1 -143 16 -124 51 8 17
22 19 109 19 105 0 142 7 118 21 -7 5 -56 9 -108 9 -84 0 -114 4 -207 25 -43
10 -23 24 58 42 45 9 78 18 73 19 -5 1 -22 5 -37 8 -22 5 -28 12 -25 29 3 20
8 22 73 22 l70 0 -3 -33 c-3 -27 1 -34 24 -42 34 -13 86 -9 91 6 2 6 -10 14
-27 17 -34 7 -42 39 -12 56 18 11 95 4 125 -11z m132 2 c4 -6 21 -10 38 -9 45
2 57 0 57 -10 0 -10 -145 -15 -161 -6 -16 10 10 35 37 35 12 0 26 -5 29 -10z
m3790 -39 c10 -17 -122 -101 -158 -101 -8 0 -17 12 -19 28 -3 15 -9 35 -13 44
-5 13 -1 20 16 27 31 13 166 14 174 2z m-215 -51 c0 -5 -4 -10 -10 -10 -5 0
-10 5 -10 10 0 6 5 10 10 10 6 0 10 -4 10 -10z m-1032 -136 c38 -49 54 -85 35
-83 -12 1 -113 117 -113 129 0 26 39 3 78 -46z m-2614 -53 c48 -6 91 -13 94
-16 3 -3 -1 -12 -10 -21 -11 -12 -46 -16 -154 -19 -76 -3 -147 -2 -156 1 -21
6 -24 44 -6 62 13 13 64 11 232 -7z m3036 -16 c0 -40 -30 -231 -66 -424 -14
-74 -22 -146 -19 -160 4 -14 21 -41 38 -60 l32 -33 -30 15 c-16 8 -41 27 -54
41 -22 23 -23 31 -18 88 3 35 26 156 52 271 25 114 45 228 45 252 0 25 5 45
10 45 6 0 10 -16 10 -35z m-3316 10 c9 -25 -5 -45 -30 -45 -14 0 -27 7 -30 15
-10 25 4 45 30 45 13 0 26 -7 30 -15z m3236 -18 c36 -18 31 -38 -15 -64 -54
-30 -65 -29 -65 8 0 17 -5 39 -10 50 -10 17 -7 19 27 19 21 0 49 -6 63 -13z
m-120 -38 c0 -6 -4 -7 -10 -4 -5 3 -10 11 -10 16 0 6 5 7 10 4 6 -3 10 -11 10
-16z m-50 -52 c1 -20 -38 16 -43 39 l-5 26 24 -28 c13 -16 23 -33 24 -37z
m-2959 16 c6 -6 9 -19 6 -27 -5 -13 -25 -16 -104 -17 -54 0 -125 -2 -158 -2
-55 -2 -60 0 -63 20 -4 28 12 32 128 35 147 5 179 3 191 -9z m159 2 c11 -13
10 -18 -6 -30 -27 -20 -74 -29 -87 -16 -7 7 -7 18 1 36 9 20 19 25 46 25 18 0
39 -7 46 -15z m159 -14 c12 -8 9 -11 -12 -17 -30 -7 -43 -1 -32 15 8 13 25 14
44 2z m454 2 c75 -6 94 -14 60 -27 -9 -4 -96 -9 -192 -12 -142 -4 -180 -2
-195 9 -39 29 -9 38 122 37 70 -1 162 -4 205 -7z m2145 -22 c12 -17 19 -37 15
-49 -4 -16 6 -29 46 -57 28 -20 51 -41 51 -45 0 -4 -16 -17 -35 -29 -37 -21
-40 -30 -35 -111 5 -98 136 -425 208 -518 l18 -23 32 93 c18 52 32 102 32 111
0 20 11 22 28 5 22 -22 13 -83 -23 -160 -63 -137 -57 -187 35 -302 27 -33 81
-101 119 -151 l70 -90 0 -80 c-1 -84 12 -152 38 -192 14 -21 14 -23 -1 -17
-26 10 -53 72 -65 149 -11 76 -53 169 -102 228 l-32 38 -17 -38 c-26 -59 -67
-189 -89 -282 -11 -46 -25 -89 -30 -94 -15 -15 -39 9 -43 41 -4 27 -4 27 -51
-23 -65 -69 -72 -94 -72 -272 0 -147 -1 -152 -17 -130 -29 37 -41 97 -35 182
8 123 35 182 124 272 69 68 79 84 116 176 22 56 53 121 68 145 l29 43 -51 67
c-51 68 -186 341 -254 510 -55 140 -83 267 -94 432 -6 80 -13 157 -17 173 -8
35 7 35 34 -2z m-2820 -81 c3 -44 -14 -54 -36 -20 -7 12 -8 20 -2 20 5 0 10 6
10 14 0 8 6 17 13 19 6 3 12 6 13 6 0 1 1 -17 2 -39z m-348 12 c45 -37 -11
-64 -69 -33 -27 15 -27 29 2 41 33 13 42 12 67 -8z m280 -17 c0 -28 -24 -34
-34 -9 -8 20 1 34 20 34 8 0 14 -10 14 -25z m785 8 c12 -33 -13 -38 -196 -38
-156 0 -182 2 -190 16 -18 34 9 39 197 39 158 -1 183 -3 189 -17z m-965 -17
c0 -9 -39 -13 -51 -5 -10 6 -4 9 19 9 17 0 32 -2 32 -4z m274 -57 c16 -5 59
-9 96 -9 92 0 139 -35 63 -47 -28 -5 -120 -10 -197 -12 -45 -1 -39 -12 13 -30
24 -8 38 -8 45 -1 15 15 112 12 125 -4 19 -23 2 -43 -41 -50 -37 -6 -40 -9
-34 -32 15 -59 -17 -80 -104 -68 -37 5 -51 11 -56 26 -10 32 13 45 79 47 58 2
23 18 -53 25 -44 3 -90 10 -103 15 -15 6 -29 4 -42 -5 -22 -16 -127 -19 -156
-4 -23 13 -25 46 -3 54 30 11 135 6 163 -9 16 -8 32 -11 36 -7 5 4 4 0 0 -8
-7 -12 -4 -11 11 2 10 9 31 20 47 23 35 9 34 18 -3 32 -34 13 -39 38 -12 63
18 18 68 18 126 -1z m-250 -15 c25 -24 20 -44 -11 -45 -16 0 -41 -3 -57 -5
-20 -4 -35 1 -52 17 -30 28 -30 36 -1 42 53 10 106 6 121 -9z m936 3 c42 -2
47 -6 41 -34 0 -5 -68 -9 -150 -10 -157 -2 -170 2 -154 43 5 14 20 15 112 10
58 -4 126 -8 151 -9z m-351 -6 c17 -11 7 -41 -13 -41 -19 0 -29 17 -22 35 6
17 15 18 35 6z m-746 -8 c-7 -2 -19 -2 -25 0 -7 3 -2 5 12 5 14 0 19 -2 13 -5z
m759 -86 c15 -23 -5 -36 -55 -35 -55 0 -68 8 -59 40 4 17 10 19 56 13 28 -4
54 -12 58 -18z m496 -15 c2 -12 -3 -24 -11 -28 -17 -6 -185 11 -194 19 -3 4
-3 13 1 22 5 13 22 15 103 13 93 -3 98 -4 101 -26z m235 17 c78 -2 109 -10 94
-26 -6 -6 -96 -13 -175 -15 -36 -1 -57 4 -63 13 -4 8 -5 17 -1 20 8 8 44 17
53 13 3 -2 44 -4 92 -5z m540 -14 c4 -8 3 -16 -1 -19 -9 -5 -199 -10 -314 -8
-65 2 -87 5 -85 15 1 6 7 15 12 19 6 4 94 8 196 8 155 0 188 -2 192 -15z
m-1892 -59 c69 -2 105 -25 79 -50 -8 -8 -31 -18 -50 -21 -19 -3 -36 -8 -39
-11 -13 -13 22 -19 119 -21 60 -2 113 -4 117 -5 4 -1 23 2 41 6 24 6 40 3 58
-8 18 -12 29 -14 43 -6 11 5 50 10 86 10 58 0 66 -2 63 -17 -3 -14 -14 -18
-53 -19 -28 -1 -61 2 -75 6 -14 4 -36 3 -50 -3 -37 -14 -88 -19 -95 -8 -3 6
-18 5 -38 -4 -47 -19 -292 -15 -313 6 -19 19 -6 32 52 53 21 8 32 15 24 16
-54 5 -80 22 -80 51 0 19 29 41 43 32 5 -3 36 -6 68 -7z m884 -16 c27 -30 8
-42 -72 -47 -75 -5 -109 9 -98 39 8 21 25 25 96 27 44 1 60 -3 74 -19z m320 9
c102 1 139 -13 119 -46 -10 -16 -26 -18 -169 -15 -157 3 -185 8 -185 38 0 8 1
14 3 14 1 1 20 3 42 6 22 4 42 8 45 11 2 2 16 1 30 -2 14 -4 66 -6 115 -6z
m-598 -17 c27 -27 8 -37 -79 -40 -67 -3 -87 0 -97 12 -11 13 -11 19 0 32 16
20 155 17 176 -4z m1301 9 c8 0 12 -10 10 -23 l-3 -23 -226 0 c-177 0 -230 3
-242 14 -27 22 -20 30 31 33 42 3 398 2 430 -1z m232 -11 c30 0 62 -5 70 -10
13 -8 12 -11 -5 -24 -23 -18 -81 -21 -90 -5 -4 6 -14 7 -24 4 -39 -15 -80 -14
-97 2 -15 16 -15 18 2 31 12 8 32 11 54 8 19 -3 60 -6 90 -6z m481 -7 c7 -7
10 -15 8 -18 -8 -7 -135 -19 -206 -19 -35 -1 -63 -5 -63 -11 0 -5 -7 0 -15 12
-8 12 -12 28 -9 37 5 13 27 15 139 13 90 -1 138 -6 146 -14z m-1458 -72 c25
-1 21 -30 -5 -36 -13 -3 -138 -4 -278 -3 -219 3 -255 5 -255 18 0 13 34 16
230 20 127 3 244 4 260 3 17 -1 38 -2 48 -2z m205 -19 c2 -7 -7 -12 -21 -12
-49 0 -78 24 -39 32 22 6 55 -6 60 -20z m797 0 c-8 -8 -25 10 -19 20 4 6 9 5
15 -3 4 -7 6 -15 4 -17z m303 21 c24 -10 12 -32 -20 -38 -18 -3 -62 -5 -98 -3
-51 2 -65 7 -68 20 -2 12 5 18 30 20 50 6 141 6 156 1z m-769 -14 c51 -18 19
-29 -84 -29 -91 0 -123 9 -111 29 9 15 153 14 195 0z m305 5 c20 -8 11 -24
-15 -24 -19 0 -25 11 -12 23 8 8 8 8 27 1z m-1900 -85 c144 -1 187 -7 194 -27
6 -19 -36 -29 -161 -37 -201 -12 -319 7 -280 46 10 10 93 28 104 23 3 -2 67
-4 143 -5z m-1 -95 c20 -4 37 -12 37 -19 0 -23 -82 -40 -192 -40 -88 0 -110 3
-125 17 -9 10 -13 21 -9 25 17 17 217 28 289 17z m5540 -64 c3 -11 1 -18 -4
-14 -5 3 -9 12 -9 20 0 20 7 17 13 -6z m-5649 -36 c83 -12 44 -44 -53 -44 -60
0 -111 12 -111 26 0 22 74 30 164 18z m5725 -149 c0 -5 -8 1 -19 15 -11 14
-19 34 -19 45 0 15 5 11 19 -15 11 -19 19 -39 19 -45z m-2234 18 c-9 -16 -28
-41 -41 -58 l-25 -30 16 40 c17 42 42 75 57 75 5 0 2 -12 -7 -27z m2295 -129
c18 -30 30 -58 27 -61 -3 -3 -20 22 -36 56 -39 76 -33 79 9 5z m-6205 16 c0
-22 -39 -19 -43 3 -3 15 1 18 20 15 12 -2 23 -10 23 -18z m313 6 c20 -12 14
-35 -11 -41 -28 -7 -166 0 -189 10 -22 9 -23 21 -3 32 18 10 186 10 203 -1z
m285 4 c95 0 117 -3 117 -14 0 -25 -22 -30 -145 -32 -131 -2 -155 1 -155 20 0
20 24 37 45 32 11 -3 73 -6 138 -6z m451 -6 c27 -10 18 -22 -31 -44 -46 -20
-47 -21 -24 -36 17 -13 20 -19 10 -30 -20 -24 -89 -15 -89 12 0 7 8 18 18 23
15 9 15 12 2 21 -8 5 -32 13 -52 16 -28 5 -38 11 -38 25 0 17 9 19 94 19 52 0
101 -3 110 -6z m232 -9 c25 -19 9 -31 -49 -33 -49 -2 -72 9 -64 32 8 21 86 22
113 1z m314 5 c13 -8 13 -11 -1 -25 -11 -12 -38 -15 -113 -16 -102 0 -137 11
-115 37 14 16 204 20 229 4z m415 -10 c-10 -11 -21 -17 -26 -15 -4 3 -29 0
-56 -6 -88 -21 -143 -10 -130 25 5 13 26 16 118 16 111 0 112 0 94 -20z m-275
1 c0 -11 -19 -24 -37 -27 -14 -2 -18 18 -6 29 10 10 43 8 43 -2z m-1282 -74
c10 -7 10 -12 1 -23 -9 -10 -39 -14 -121 -14 -90 0 -110 3 -115 16 -3 9 0 19
6 24 17 10 213 7 229 -3z m1037 1 c4 -4 5 -14 1 -23 -8 -23 -191 -18 -191 5 0
9 13 17 30 21 41 7 152 6 160 -3z m-669 -10 c13 -20 -24 -28 -138 -28 -114 0
-150 10 -117 31 19 12 248 9 255 -3z m389 1 c4 -6 4 -13 0 -17 -6 -7 -126 -4
-133 3 -14 13 17 25 68 25 32 0 62 -5 65 -11z m645 -3 c0 -8 -6 -16 -13 -19
-26 -10 -235 -8 -242 3 -3 6 -11 8 -16 5 -5 -4 -9 -2 -9 4 0 15 26 19 158 20
98 1 122 -2 122 -13z m-1747 -295 c16 -16 -31 -32 -84 -28 -55 5 -84 22 -60
36 17 11 132 4 144 -8z m279 3 c15 -9 -33 -44 -61 -45 -68 -3 -111 11 -111 36
0 7 6 16 13 19 14 6 147 -3 159 -10z m397 3 c15 -19 -15 -46 -58 -51 -35 -4
-56 19 -45 48 8 20 87 22 103 3z m219 -3 c17 -3 22 -10 20 -27 -2 -12 -9 -23
-15 -23 -34 -4 -36 -6 -13 -15 13 -5 53 -9 87 -8 62 2 81 12 44 24 -28 8 -36
37 -15 52 34 25 144 10 144 -20 0 -8 -21 -19 -50 -26 -51 -13 -62 -24 -35 -35
20 -7 19 -42 -1 -50 -9 -4 -66 -9 -126 -12 -149 -8 -206 16 -145 63 l24 17
-31 16 c-78 40 -5 69 112 44z m-419 -3 c8 -5 11 -16 7 -26 -5 -14 -14 -16 -42
-12 -43 7 -48 11 -41 32 7 16 53 20 76 6z m781 -11 c0 -13 -7 -20 -20 -20 -13
0 -20 7 -20 20 0 13 7 20 20 20 13 0 20 -7 20 -20z m-984 -73 l27 -24 -32 -11
c-56 -20 -100 3 -85 43 9 23 59 18 90 -8z m402 7 c14 -3 22 -12 22 -24 0 -21
-10 -24 -90 -35 -50 -6 -166 -7 -190 -2 -43 10 -60 20 -60 37 0 14 10 21 38
25 20 4 42 8 47 9 15 4 206 -4 233 -10z m-565 0 c25 -8 21 -33 -9 -44 -51 -20
-128 9 -109 41 6 9 88 11 118 3z m519 -95 c17 -9 14 -44 -4 -55 -5 -3 -35 -6
-66 -6 -31 1 -73 -3 -92 -8 -28 -7 -18 -9 50 -8 161 0 244 -18 220 -48 -8 -9
-55 -12 -188 -12 -219 1 -254 5 -250 27 2 11 22 19 68 27 54 9 61 12 39 18
-30 8 -58 51 -43 65 5 5 25 11 44 13 57 5 204 -3 222 -13z m-364 -16 c4 -30
-23 -37 -141 -35 -98 1 -127 10 -127 38 0 10 24 14 98 17 161 6 167 5 170 -20z
m544 17 c5 0 8 -10 6 -22 -2 -17 -13 -25 -41 -31 -48 -12 -69 -3 -65 25 3 23
46 40 76 32 8 -2 18 -4 24 -4z m451 -7 c4 -2 7 -13 7 -23 0 -27 -40 -32 -228
-28 -140 3 -164 5 -179 21 -17 18 -17 19 2 33 17 13 49 14 205 8 102 -3 188
-8 193 -11z m650 -3 c41 0 34 -27 -10 -39 -45 -12 -75 -9 -81 8 -7 20 20 43
42 37 12 -3 33 -6 49 -6z m-443 -14 c0 -8 -9 -17 -19 -21 -34 -10 -112 -8
-124 4 -19 19 11 31 81 31 47 0 62 -3 62 -14z m230 4 c21 -13 11 -18 -50 -26
-92 -11 -95 -11 -98 14 -3 21 0 22 65 22 37 0 75 -4 83 -10z m2902 -101 c40
-33 94 -91 120 -127 26 -37 69 -96 95 -132 51 -69 45 -67 -63 22 -109 89 -264
257 -264 285 0 28 42 10 112 -48z m-4414 35 c12 -4 22 -14 22 -24 0 -20 -61
-31 -143 -25 -89 5 -90 41 -2 48 93 7 100 7 123 1z m1426 -8 c36 -1 45 -21 14
-30 -37 -10 -148 -7 -148 4 0 6 0 13 -1 18 -1 11 43 20 76 14 17 -2 43 -5 59
-6z m278 -10 c4 -6 4 -14 -1 -19 -10 -10 -126 -11 -141 -2 -16 10 -12 33 8 38
28 7 126 -5 134 -17z m-1007 -17 c-9 -14 -45 -11 -45 4 0 8 3 17 6 20 10 9 46
-12 39 -24z m420 22 c19 -8 19 -8 -3 -20 -22 -12 -317 -19 -329 -8 -3 3 -3 13
0 22 5 13 30 15 159 14 84 0 162 -4 173 -8z m80 -11 c3 -5 2 -10 -4 -10 -5 0
-13 5 -16 10 -3 6 -2 10 4 10 5 0 13 -4 16 -10z m2015 -281 c0 -34 -134 -117
-340 -209 -162 -73 -282 -136 -321 -170 -26 -23 -30 -35 -43 -128 -8 -57 -17
-106 -19 -109 -12 -11 -19 72 -13 138 4 38 4 69 -1 68 -26 -2 -213 -266 -314
-444 -31 -55 -75 -131 -97 -170 -55 -93 -72 -173 -79 -379 -6 -178 -19 -201
-30 -56 -3 44 -9 83 -14 85 -11 7 -66 -132 -78 -199 -6 -33 -11 -94 -12 -135
0 -42 -4 -85 -8 -96 -7 -17 -10 -14 -20 20 -6 22 -11 55 -11 73 0 17 -3 32 -8
32 -4 0 -27 -38 -51 -85 -51 -100 -58 -153 -43 -319 7 -75 7 -127 0 -170 -17
-99 -28 -89 -28 25 0 57 -7 139 -15 182 -19 101 -19 170 0 208 9 16 40 67 70
113 32 49 66 118 83 170 17 48 50 121 75 164 33 58 47 96 57 152 21 124 59
215 181 422 139 235 300 426 422 500 81 48 625 324 645 327 6 0 12 -4 12 -10z
m-2383 -25 c3 -8 2 -19 -3 -24 -16 -14 -441 -19 -460 -5 -40 28 -4 34 207 34
116 0 213 2 217 5 11 11 33 6 39 -10z m-556 -11 c7 -7 10 -15 8 -18 -3 -2 -48
-7 -102 -10 -87 -4 -97 -3 -106 14 -6 10 -7 21 -4 25 14 14 192 4 204 -11z
m-301 -2 c0 -6 -4 -12 -9 -15 -13 -8 -42 4 -35 15 7 12 44 12 44 0z m334 -70
c3 -5 -2 -18 -12 -30 -15 -18 -29 -21 -122 -22 -58 0 -121 4 -140 10 -19 6
-50 11 -67 11 -22 0 -33 5 -33 15 0 11 13 14 56 14 30 -1 58 2 61 5 10 10 251
7 257 -3z m156 -5 c0 -28 -12 -46 -31 -46 -25 0 -35 26 -19 45 16 19 50 20 50
1z m-340 -97 c9 -17 8 -23 -7 -35 -24 -18 -26 -18 -54 7 -23 20 -24 21 -5 35
28 20 53 17 66 -7z m345 5 c25 -8 49 -13 54 -10 4 3 17 -1 27 -8 16 -12 23
-12 46 0 40 21 67 18 77 -8 5 -13 6 -28 4 -35 -6 -17 29 -25 100 -23 104 4
109 3 105 -22 -3 -21 -10 -23 -62 -26 -32 -2 -71 1 -87 7 -18 6 -40 6 -60 1
-43 -13 -79 -3 -79 21 0 11 7 22 16 26 12 4 8 9 -16 19 -37 16 -98 18 -120 4
-16 -10 -15 -11 23 -28 21 -9 28 -18 25 -35 -3 -22 -5 -22 -147 -21 -123 1
-146 3 -155 17 -21 33 18 45 148 47 57 0 37 12 -26 15 -29 1 -56 3 -60 4 -13
2 -28 39 -22 54 8 21 149 22 209 1z m-345 -99 c7 -8 9 -22 6 -31 -5 -13 -15
-15 -44 -11 -42 7 -71 35 -49 49 20 13 74 9 87 -7z m51 -76 c17 -9 19 -17 14
-49 -8 -45 -9 -44 110 -55 74 -6 97 -17 78 -36 -13 -13 -271 -25 -338 -15 -51
8 -66 27 -46 58 10 16 9 23 -3 37 -23 25 -20 50 7 56 77 16 152 18 178 4z m92
-15 c9 -10 -12 -44 -27 -44 -14 0 -28 35 -18 44 7 8 37 7 45 0z m210 -8 c7
-19 -1 -26 -30 -26 -22 0 -31 19 -16 33 11 12 41 7 46 -7z m209 -86 c35 0 50
-4 55 -16 7 -19 -5 -32 -37 -37 -14 -2 -24 -8 -23 -13 4 -16 104 -25 161 -14
36 6 60 6 73 -1 20 -10 26 -44 10 -54 -5 -3 -73 -6 -152 -6 -108 -1 -144 2
-150 13 -13 19 -11 26 11 45 11 10 20 21 20 25 0 5 -41 8 -90 8 -72 0 -92 3
-96 15 -4 8 0 23 7 31 11 14 26 15 88 10 41 -3 96 -6 123 -6z m547 -14 c18
-22 0 -27 -105 -31 -89 -3 -144 6 -144 26 0 14 25 17 131 18 80 1 109 -2 118
-13z m301 -11 c0 -24 -2 -25 -67 -26 -38 0 -76 -2 -87 -4 -24 -5 -43 3 -50 22
-11 28 5 33 105 33 99 0 99 0 99 -25z m-1289 -64 c19 -15 21 -22 12 -32 -22
-22 -195 -30 -230 -11 -25 14 -31 47 -10 55 6 3 55 6 108 6 82 1 101 -2 120
-18z m1310 -8 c7 -7 9 -16 5 -20 -8 -9 -113 -20 -247 -28 -102 -5 -125 3 -117
42 3 15 17 19 88 23 116 7 256 -2 271 -17z m-976 -3 c4 -12 2 -27 -4 -33 -17
-17 -144 -19 -192 -3 -24 9 -53 13 -65 10 -27 -7 -39 10 -21 28 9 9 53 14 144
16 128 4 131 3 138 -18z m524 1 c8 -14 6 -22 -8 -35 -30 -27 -69 1 -55 39 9
21 51 19 63 -4z m26 -91 c16 -17 15 -19 -5 -30 -31 -17 -74 -9 -79 14 -7 42
50 53 84 16z m-995 11 c0 -5 3 -16 6 -25 10 -26 -59 -32 -98 -8 -23 15 -28 22
-18 26 48 16 110 20 110 7z m594 -6 c42 -43 4 -55 -170 -55 -81 0 -145 -2
-143 -4 5 -6 70 -14 112 -15 31 -1 48 -28 26 -42 -23 -14 -153 -11 -174 5 -19
14 -19 15 4 33 l23 19 -41 18 c-35 16 -45 17 -72 6 -25 -11 -32 -11 -39 0 -16
26 1 42 39 37 20 -3 45 -2 56 3 11 4 97 8 191 9 146 2 174 -1 188 -14z m677 0
c13 -9 11 -21 -6 -39 -12 -12 -35 -14 -117 -10 -123 6 -160 27 -94 54 22 10
200 5 217 -5z m-487 -12 c8 -20 -17 -43 -46 -43 -10 0 -18 -5 -18 -10 0 -6 12
-10 28 -9 90 2 200 -3 212 -12 13 -8 12 -12 -4 -24 -16 -12 -57 -15 -207 -15
-161 0 -190 2 -204 16 -23 23 -4 34 63 34 53 0 63 8 37 30 -11 9 -12 17 -4 31
14 27 133 28 143 2z m-661 -73 c33 0 47 -4 47 -14 0 -18 -44 -26 -146 -26 -84
0 -101 7 -90 37 5 13 18 15 74 9 37 -3 88 -6 115 -6z m1352 -1 c68 -1 105 -11
105 -28 0 -4 -86 -9 -190 -10 -168 -2 -191 0 -197 15 -11 28 18 35 117 29 52
-3 127 -6 165 -6z m-975 -9 c0 -5 -7 -7 -15 -4 -8 4 -15 8 -15 10 0 2 7 4 15
4 8 0 15 -4 15 -10z m-311 -284 c23 -15 10 -35 -26 -42 -39 -7 -414 1 -546 12
-44 4 -76 11 -74 17 1 5 58 11 127 14 68 2 126 6 128 8 8 7 379 -2 391 -9z
m-241 -89 c6 -7 6 -21 1 -35 -8 -21 -14 -23 -47 -19 -69 10 -88 27 -61 54 15
15 95 15 107 0z m399 -11 c30 -12 2 -36 -47 -41 -8 -1 -37 -5 -65 -9 -32 -4
-66 -2 -94 6 -95 28 -43 55 99 51 52 -1 100 -5 107 -7z m272 -18 c10 -27 -13
-41 -42 -26 -10 5 -27 6 -38 3 -30 -10 -89 3 -89 20 0 19 16 23 93 24 61 1 68
-1 76 -21z m-396 -70 c11 -42 -6 -48 -146 -45 l-132 2 0 25 c0 25 1 25 108 30
59 3 120 6 136 8 22 2 30 -3 34 -20z m535 6 c31 -6 29 -40 -2 -48 -44 -11
-164 -19 -189 -12 -50 12 -41 62 11 68 33 4 149 -1 180 -8z m-160 -84 c97 0
103 -1 111 -22 14 -36 -20 -47 -154 -49 -104 -1 -119 1 -136 18 -34 34 -1 68
56 57 11 -2 66 -4 123 -4z m-408 -16 c15 -15 1 -44 -25 -54 -13 -5 -52 -5 -90
1 -37 5 -71 7 -76 3 -5 -3 -34 -2 -64 1 -42 6 -56 12 -61 27 -3 12 -1 24 6 28
19 12 298 6 310 -6z m803 -13 c9 -9 8 -14 -3 -21 -17 -11 -139 -13 -164 -4
-19 7 -21 30 -3 38 21 10 158 -1 170 -13z m-1022 -71 c11 -7 19 -21 19 -37 0
-25 -1 -26 -47 -19 -26 3 -50 11 -54 18 -12 19 1 37 29 41 15 2 28 5 30 6 2 0
12 -4 23 -9z m209 0 c35 -22 10 -53 -52 -64 -30 -5 -39 -3 -46 11 -10 20 -5
44 12 55 16 11 68 9 86 -2z m315 -20 c15 -17 15 -19 -5 -33 -16 -11 -39 -14
-83 -11 -95 7 -109 11 -105 37 3 20 9 22 60 22 31 0 59 3 62 6 11 11 54 -2 71
-21z m-381 -72 c42 -2 67 -31 46 -52 -15 -15 -160 -18 -237 -5 -68 12 -96 31
-66 45 17 7 201 22 214 17 3 -1 23 -3 43 -5z m265 -13 c7 -7 6 -18 -2 -35 -10
-19 -20 -24 -42 -23 -17 1 -50 4 -75 5 -46 3 -64 24 -42 51 13 15 147 16 161
2z m314 -4 c22 -22 -20 -41 -90 -41 -35 0 -85 -5 -109 -11 -42 -11 -47 -10
-67 10 l-22 22 21 17 c16 14 41 17 137 16 79 0 122 -5 130 -13z m245 -7 c7 -2
10 -8 7 -14 -9 -15 -158 -13 -153 2 8 23 93 30 146 12z m-558 -73 c14 -4 38
-4 54 1 42 11 106 -8 106 -31 0 -14 -12 -22 -49 -31 -27 -6 -59 -10 -72 -8
-12 2 -24 -3 -27 -11 -2 -8 0 -11 6 -8 10 7 62 -29 62 -43 0 -33 -73 -53 -98
-28 -16 16 -15 51 0 66 22 22 -11 33 -82 28 -98 -7 -103 -8 -137 -1 -33 6 -51
31 -33 49 9 9 88 17 230 23 8 1 26 -2 40 -6z m-355 -31 c0 -24 -3 -25 -53 -25
-35 1 -56 6 -62 15 -16 24 -11 33 13 27 12 -4 29 -2 37 4 8 5 26 8 40 7 19 -2
25 -9 25 -28z m239 -80 c36 -35 -71 -60 -219 -52 -102 5 -121 13 -104 44 8 14
26 18 102 21 113 4 209 -2 221 -13z m484 -2 c103 3 123 1 128 -13 11 -27 -12
-40 -63 -38 -26 2 -93 4 -148 5 -114 3 -131 9 -112 39 10 16 18 18 42 12 17
-5 85 -7 153 -5z m382 -13 c22 -27 -2 -36 -86 -33 -64 2 -79 6 -82 20 -4 20
14 25 94 27 44 1 65 -3 74 -14z m166 4 c11 -18 -9 -29 -63 -34 -55 -5 -73 5
-53 30 15 18 105 21 116 4z m-1242 -91 c20 -28 11 -36 -44 -38 -69 -3 -77 -1
-84 15 -12 32 4 45 60 45 43 0 56 -4 68 -22z m106 2 c0 -22 -1 -23 -24 -14
-13 5 -14 9 -5 20 16 20 29 17 29 -6z m377 10 c23 0 50 2 60 4 27 5 63 -11 63
-29 0 -24 -43 -35 -136 -35 -49 0 -84 -4 -84 -10 0 -5 17 -10 38 -10 20 -1 62
-3 92 -5 30 -3 81 -5 113 -6 40 -1 57 -5 57 -15 0 -18 -43 -24 -181 -28 -149
-3 -183 8 -143 48 26 26 6 36 -72 36 -56 0 -74 3 -74 14 0 33 48 45 160 39 36
-2 84 -3 107 -3z m478 -10 c8 -7 15 -21 15 -31 0 -16 -8 -19 -57 -20 -32 -1
-62 0 -68 1 -5 2 -45 4 -87 4 -42 1 -79 4 -83 8 -4 4 -5 18 -1 32 l6 25 130
-3 c85 -2 135 -8 145 -16z m158 9 c20 -5 37 -15 37 -20 0 -17 -20 -49 -31 -49
-6 0 -8 4 -5 9 4 5 -3 7 -14 4 -26 -7 -80 16 -80 34 0 7 10 18 23 23 29 11 26
11 70 -1z m-88 -88 c99 5 100 5 103 -17 4 -26 -26 -36 -78 -28 -20 3 -83 7
-140 7 -89 2 -105 4 -108 19 -4 20 28 25 128 21 36 -2 79 -3 95 -2z m-1125
-20 c0 -24 -30 -29 -119 -19 -69 8 -76 11 -66 27 3 7 43 11 96 11 81 0 89 -2
89 -19z m363 4 c4 -8 2 -17 -3 -20 -13 -8 -257 -8 -270 0 -5 3 -10 13 -10 21
0 21 275 21 283 -1z m1172 -197 c-17 -79 -70 -183 -137 -266 -38 -48 -71 -100
-75 -115 -3 -16 -16 -35 -28 -43 -29 -19 -50 -94 -70 -248 -16 -125 -50 -259
-85 -341 -25 -57 -19 -100 13 -110 22 -7 22 -7 -3 -15 -50 -16 -76 -11 -88 15
-17 37 -15 43 17 80 35 40 64 114 85 218 18 84 22 181 7 158 -8 -13 -17 -13
-66 -1 -45 11 -53 16 -43 26 7 7 35 14 61 17 36 3 50 0 56 -12 10 -17 16 4 30
125 10 85 27 123 83 189 79 95 160 209 200 282 22 40 42 73 45 73 2 0 2 -15
-2 -32z m-1709 -82 c33 -9 19 -36 -18 -36 -59 0 -219 23 -211 31 15 14 178 18
229 5z m342 -14 c4 -25 -13 -31 -63 -23 -22 4 -50 3 -63 -3 -25 -11 -72 8 -72
30 0 17 22 21 115 18 71 -2 80 -4 83 -22z m-315 -74 c63 -4 77 -46 17 -49 -42
-2 -125 14 -132 25 -12 18 12 35 45 31 18 -2 49 -5 70 -7z m380 5 c73 -6 94
-23 62 -47 -12 -9 -46 -12 -114 -9 -129 5 -133 5 -160 -2 -18 -5 -21 -9 -12
-18 15 -15 14 -57 -1 -62 -7 -2 -45 -6 -85 -10 -65 -5 -74 -4 -93 15 -34 34
-12 49 78 52 l77 3 -3 32 c-2 18 -1 37 3 43 7 11 144 13 248 3z m135 -103 c1
0 2 -6 2 -14 0 -35 -122 -38 -128 -3 -2 10 4 24 14 32 15 11 26 10 64 -1 25
-8 46 -14 48 -14z m-170 8 c16 -16 15 -30 -4 -54 -8 -10 -13 -13 -9 -6 6 11
-6 17 -28 13 -11 -2 -20 27 -13 44 7 18 37 20 54 3z m351 -22 c2 -11 -4 -25
-13 -32 -13 -9 -14 -17 -6 -40 9 -23 8 -31 -6 -41 -27 -20 -54 1 -52 42 1 19
-4 40 -11 48 -6 8 -8 22 -5 31 10 26 87 18 93 -8z m-196 -59 c49 -7 87 -22 87
-35 0 -23 -69 -33 -248 -35 -187 -2 -192 -2 -203 20 -23 43 -8 52 93 51 87 0
188 9 197 18 2 2 9 0 15 -5 6 -4 33 -11 59 -14z m-441 -10 c14 -27 -13 -51
-57 -51 -41 0 -58 14 -49 38 14 37 88 45 106 13z m421 -96 c16 -16 -38 -32
-92 -27 -25 3 -54 5 -63 5 -11 1 -18 9 -18 21 0 18 6 19 81 16 45 -2 86 -9 92
-15z m147 -6 c0 -14 -4 -25 -8 -25 -7 0 -8 31 -3 48 4 11 11 -3 11 -23z m-430
6 c0 -10 -30 -24 -37 -17 -3 3 -2 9 2 15 8 13 35 15 35 2z m978 -202 c-18 -12
-58 -11 -58 0 0 13 20 18 48 13 18 -4 20 -7 10 -13z m232 -943 c0 -2 -7 -6
-15 -10 -8 -3 -15 -1 -15 4 0 6 7 10 15 10 8 0 15 -2 15 -4z m1011 -125 c49
-33 98 -81 82 -81 -12 0 -88 54 -98 69 -3 6 -25 11 -49 11 -51 0 -108 -37
-152 -99 -16 -22 -32 -41 -36 -41 -33 -1 53 137 96 156 53 23 107 17 157 -15z
m-971 -42 c-7 -11 -14 -18 -17 -15 -8 8 5 36 17 36 7 0 7 -6 0 -21z m585 -12
c49 -25 35 -32 -37 -18 -49 9 -56 7 -85 -15 -50 -38 -68 -30 -37 15 20 29 72
52 99 44 11 -3 38 -15 60 -26z m105 -122 c91 -24 194 -49 229 -55 97 -17 258
-15 310 4 57 21 80 20 138 -5 181 -78 288 -115 497 -169 131 -34 300 -81 375
-105 266 -86 272 -87 460 -94 118 -4 176 -10 178 -18 6 -16 -164 -27 -290 -19
-124 9 -292 51 -587 146 -320 104 -528 163 -590 168 -48 3 -83 -5 -255 -62
-173 -57 -300 -93 -472 -134 -24 -5 -43 -7 -43 -3 0 3 64 26 143 50 78 24 187
61 242 82 55 20 147 52 203 69 105 33 129 34 235 13 47 -9 25 12 -27 27 -27 7
-118 13 -223 15 -257 3 -372 18 -618 81 -146 37 -154 37 -225 2 -50 -24 -90
-57 -172 -141 -60 -61 -108 -105 -108 -100 0 15 127 180 152 198 66 46 149 94
170 97 47 8 116 -4 278 -47z m-340 37 c0 -15 -49 -32 -89 -32 -79 0 -101 -10
-149 -71 -50 -62 -62 -70 -62 -40 0 20 70 105 104 124 11 6 55 14 96 18 41 3
81 6 88 7 6 1 12 -2 12 -6z m3474 -164 c-8 -28 -1 -22 -51 -47 -24 -12 -43
-18 -43 -14 0 4 17 24 37 45 42 44 68 50 57 16z m-270 -18 c27 -10 36 -30 14
-30 -7 0 -26 7 -42 15 -26 14 -31 13 -63 -6 -19 -12 -36 -19 -39 -16 -8 7 66
46 88 47 9 0 28 -4 42 -10z m126 -75 c26 -31 -7 -14 -41 22 l-34 36 31 -21
c17 -12 37 -28 44 -37z m-260 -25 c0 -5 -5 -10 -11 -10 -5 0 -7 5 -4 10 3 6 8
10 11 10 2 0 4 -4 4 -10z m-77 -7 c-13 -2 -33 -2 -45 0 -13 2 -3 4 22 4 25 0
35 -2 23 -4z m-158 -24 c-77 -21 -235 -37 -222 -23 9 10 202 41 257 42 27 0
19 -4 -35 -19z m-274 -36 c16 -10 29 -21 29 -25 0 -4 -13 0 -29 10 -28 16 -31
16 -52 -3 -21 -19 -19 -7 4 23 12 15 13 15 48 -5z m-1583 -158 c-3 -3 -56 -14
-119 -25 -63 -11 -145 -26 -184 -34 -38 -7 -99 -16 -135 -19 l-65 -5 45 14
c77 24 241 56 335 64 130 11 129 10 123 5z m-538 -100 c0 -6 -174 -144 -225
-178 -60 -41 -75 -32 -19 10 27 20 78 62 114 94 36 31 74 61 85 67 21 12 45
16 45 7z m374 -344 c-15 -15 -177 -99 -204 -106 -14 -3 27 23 90 59 63 36 116
63 119 60 3 -2 0 -8 -5 -13z m-384 -200 c0 -7 -41 -27 -100 -49 -28 -10 4 17
45 37 45 23 55 25 55 12z"/>
</g>
</svg>
